<svg xmlns="http://www.w3.org/2000/svg" viewBox="0 0 97.63 111.81"><defs><style>.cls-1{fill:#e6b078;}.cls-2{fill:#f0f3fa;}.cls-3{fill:#d29b6e;}.cls-4{fill:#e4e9f6;}.cls-5{fill:#3a404b;}.cls-6{fill:#e54d3c;}.cls-7{fill:#bdc3c7;}.cls-8{fill:#efc087;}.cls-9{fill:#c03c2b;}</style></defs><title>Asset 1</title><g id="Layer_2" data-name="Layer 2"><g id="Layer_1-2" data-name="Layer 1"><polygon class="cls-1" points="65.72 79.9 65.72 66.75 31.92 66.75 31.92 79.9 48.82 94.92 65.72 79.9"/><path class="cls-2" d="M89.84,86,68.61,80.58a4,4,0,0,1-1-.4l-18.82,11L30.73,79.65a3.76,3.76,0,0,1-1.71.93L7.79,86A7.52,7.52,0,0,0,2,93.35L0,108.06a3.75,3.75,0,0,0,3.76,3.75H93.88a3.75,3.75,0,0,0,3.75-3.75l-2-14.71A7.51,7.51,0,0,0,89.84,86Z"/><path class="cls-3" d="M31.92,66.75V80.62c21.29,7.67,33.8-11.53,33.8-11.53V66.75Z"/><path class="cls-4" d="M13.78,99.63,3.62,88.7A7.5,7.5,0,0,0,2,93.35L0,108.06a3.75,3.75,0,0,0,3.76,3.75H16.9v-5.2A9.36,9.36,0,0,0,13.78,99.63Z"/><path class="cls-4" d="M83.85,99.63,94,88.7a7.49,7.49,0,0,1,1.61,4.65l2,14.71a3.75,3.75,0,0,1-3.75,3.75H80.74v-5.2A9.39,9.39,0,0,1,83.85,99.63Z"/><path class="cls-4" d="M31.66,75.72,48.82,91.16a64.85,64.85,0,0,0-10.74,7.32,2.41,2.41,0,0,1-3.73-.85L26.29,79.9l2.55-3.83A1.88,1.88,0,0,1,31.66,75.72Z"/><path class="cls-4" d="M66,75.72,48.82,91.16a65.06,65.06,0,0,1,10.73,7.32,2.42,2.42,0,0,0,3.74-.85L71.35,79.9,68.8,76.07A1.88,1.88,0,0,0,66,75.72Z"/><path class="cls-4" d="M73.23,108.06H60.08a1.88,1.88,0,0,0-1.87,1.88v1.87H75.1v-1.87A1.88,1.88,0,0,0,73.23,108.06Z"/><path id="Shape" class="cls-5" d="M84.42,15.26a4.56,4.56,0,0,1-1.17,3.08,3.7,3.7,0,0,1-1.44,1,3.31,3.31,0,0,1-1.35.26H17.17a3.27,3.27,0,0,1-1.34-.26,4.35,4.35,0,0,1-2.61-4.1,4.2,4.2,0,0,1,4-4.36H80.46A4.19,4.19,0,0,1,84.42,15.26Z"/><path id="Shape-2" data-name="Shape" class="cls-6" d="M76.51,10.9H21.13S26.67,0,48.82,0,76.51,10.9,76.51,10.9Z"/><circle id="Oval" class="cls-7" cx="48.82" cy="95.46" r="2.18"/><circle id="Oval-2" data-name="Oval" class="cls-7" cx="48.82" cy="106.36" r="2.18"/><path id="Shape-3" data-name="Shape" class="cls-6" d="M84.42,39.25a370.24,370.24,0,0,1-3.13,45.88,17.89,17.89,0,0,0-8.74-2.27H62.66v-9A21.78,21.78,0,0,1,64.25,72c5.16-5.47,4.92-10.27,4.7-15.53A13.49,13.49,0,0,0,76.23,47a39.3,39.3,0,0,0,.28-4.47V34.74a8.82,8.82,0,0,0-2.11-6A7.18,7.18,0,0,0,69,26.17a6.7,6.7,0,0,0-4.73,2c-.39.39-.85.81-1.36,1.24a20.83,20.83,0,0,1-28.2,0c-.52-.43-1-.85-1.37-1.24a6.68,6.68,0,0,0-4.73-2,7.21,7.21,0,0,0-5.39,2.54,8.77,8.77,0,0,0-2.1,6V42.5A41.73,41.73,0,0,0,21.4,47a13.54,13.54,0,0,0,7.28,9.46c-.21,5.26-.45,10.06,4.71,15.53A20,20,0,0,1,35,73.81v9H25.08a17.92,17.92,0,0,0-8.74,2.27,370.23,370.23,0,0,1-3.12-45.88c0-11.95,1.46-17.42,2.61-19.89a3.27,3.27,0,0,0,1.34.26H80.46a3.31,3.31,0,0,0,1.35-.26C83,21.83,84.42,27.3,84.42,39.25Z"/><path class="cls-8" d="M24.41,29.9,26,64.77A10.87,10.87,0,0,0,30.54,73l7.76,5.64a11.48,11.48,0,0,0,6.76,2.18h7.51a11.48,11.48,0,0,0,6.76-2.18L67.1,73a10.83,10.83,0,0,0,4.49-8.24L73.23,29.9Z"/><path class="cls-6" d="M33.36,28.16c.4.39.85.8,1.36,1.23a20.83,20.83,0,0,0,28.2,0c.51-.43,1-.85,1.36-1.24a6.85,6.85,0,0,1,3.08-1.76,5.49,5.49,0,0,0-3.61-1.49C55,22.26,40.74,20.4,33.36,28.16Z"/><path id="Shape-4" data-name="Shape" class="cls-9" d="M74.13,63.24a2.59,2.59,0,0,1-2.38-2.75V38.57a2.4,2.4,0,1,1,4.76,0V60.49A2.59,2.59,0,0,1,74.13,63.24Z"/><path id="Shape-5" data-name="Shape" class="cls-9" d="M23.31,63.24a2.58,2.58,0,0,0,2.37-2.75V38.57a2.58,2.58,0,0,0-2.37-2.75,2.58,2.58,0,0,0-2.38,2.75V60.49A2.58,2.58,0,0,0,23.31,63.24Z"/><path id="Shape-6" data-name="Shape" class="cls-9" d="M20.69,35v8.16c0-2.43.29-5,1.47-5.5,2.35-1,4.82,2,4.82,2a1.05,1.05,0,0,1,.19.16,12.29,12.29,0,0,0,7.89-10.15c-.55-.46-1-1.22-1.4-1.63a7.17,7.17,0,0,0-5-2.09,7.71,7.71,0,0,0-5.72,2.67A9.24,9.24,0,0,0,20.69,35Z"/><path class="cls-1" d="M21.24,40.51l2,8.48a2.15,2.15,0,0,0,2.06,1.71h0a2.17,2.17,0,0,0,2.1-2l1-8.67a3.81,3.81,0,0,0-3.63-4.37h0A3.84,3.84,0,0,0,21.24,40.51Z"/><path id="Shape-7" data-name="Shape" class="cls-9" d="M76.75,35v8.16c0-2.43-.29-5-1.47-5.5-2.35-1-4.83,2-4.83,2a1.83,1.83,0,0,0-.19.16,12.3,12.3,0,0,1-7.88-10.15c.55-.46,1-1.22,1.4-1.63a7.17,7.17,0,0,1,5-2.09,7.69,7.69,0,0,1,5.71,2.67A9.2,9.2,0,0,1,76.75,35Z"/><path class="cls-8" d="M76.4,40.51l-2,8.48a2.16,2.16,0,0,1-2.06,1.71h0a2.17,2.17,0,0,1-2.1-2l-1-8.67a3.8,3.8,0,0,1,3.62-4.37h0A3.85,3.85,0,0,1,76.4,40.51Z"/></g></g></svg>