<svg xmlns="http://www.w3.org/2000/svg" viewBox="0 0 103.29 104.84"><defs><style>.cls-1{fill:#e6b078;}.cls-2{fill:#5b4247;}.cls-3{fill:#fff;opacity:0.1;}.cls-4{fill:#efc087;}.cls-5{fill:#d5d6dc;}.cls-6{fill:#e66454;}.cls-7{fill:#e1e6e9;}.cls-8{fill:#3b566a;}.cls-9{fill:#314859;}</style></defs><title>Asset 5</title><g id="Layer_2" data-name="Layer 2"><g id="Layer_1-2" data-name="Layer 1"><path class="cls-1" d="M34.86,40.31c.36,4.11-1.64,7.65-4.45,7.89s-5.4-2.88-5.77-7,1.64-7.64,4.46-7.89,5.4,2.89,5.76,7"/><path class="cls-1" d="M79.53,41.2c-.36,4.12-2.93,7.25-5.76,7S69,44.42,69.32,40.31s2.94-7.24,5.76-7,4.81,3.78,4.45,7.89"/><path class="cls-1" d="M51.61,75.68l0,0h0v0l0,0h0L65,66.77h0V60.05a28.86,28.86,0,0,0-2.89,2.27c-5.85,5.29-11.59,4.39-11.59,4.39-3.5.09-8.49-3.5-10.62-5.17-.54-.42-1.09-.83-1.66-1.21v6.44h0Z"/><polygon class="cls-1" points="51.65 75.71 51.65 75.71 51.65 75.71 51.65 75.71 47.33 81.59 47.33 81.59 51.65 75.71"/><path class="cls-2" d="M37.47,17.63h8.3A7,7,0,0,0,48,17.28c1.5-.48,3.9-1.37,5.71-2.06a7.34,7.34,0,0,1,5-.06l8.74,3.07A9.86,9.86,0,0,1,74,25.91v15.6A28.33,28.33,0,0,1,77.38,32a6.49,6.49,0,0,0,1-3.45V15.11S77.55,8.51,71.07,7c0,0,2.64-5.62-4.2-6.95H41.67A16.68,16.68,0,0,0,25,16.68v9.89a9.45,9.45,0,0,0,2.06,5.9,11,11,0,0,1,2.32,6.37V25.73A10.14,10.14,0,0,1,37.47,17.63Z"/><path class="cls-3" d="M78.39,23.69V15.11S77.55,8.51,71.07,7c0,0,2.64-5.62-4.2-6.95H47.13C59.19,4.25,69.85,13.63,78.39,23.69Z"/><path class="cls-4" d="M50.55,66.71s5.74.9,11.59-4.39A28.86,28.86,0,0,1,65,60.05l.29-.2c2.59-1.74,7.57-6.57,8.63-18.34V25.91a9.86,9.86,0,0,0-6.48-7.68l-8.74-3.07a7.28,7.28,0,0,0-5,.07c-1.81.68-4.21,1.57-5.71,2.05a7,7,0,0,1-2.23.35h-8.3a10.14,10.14,0,0,0-8.1,8.1V41.87s.28,12.75,8.72,18.34l.18.12c.57.38,1.12.79,1.66,1.21C42.06,63.21,47.05,66.8,50.55,66.71Z"/><polygon class="cls-5" points="56.22 81.93 53.89 85.27 56.04 96.78 61.41 89.01 56.22 81.93"/><polygon class="cls-5" points="47.29 96.84 49.44 85.27 47.1 81.9 41.88 89.01 47.29 96.84"/><polygon class="cls-5" points="47.33 81.59 47.15 81.83 51.65 75.73 51.65 75.71 51.65 75.71 47.33 81.59"/><polygon class="cls-6" points="56.04 96.78 53.89 85.27 56.22 81.93 56.22 81.93 51.65 75.71 51.65 75.71 51.65 75.73 47.15 81.83 47.1 81.9 47.1 81.9 47.1 81.9 49.44 85.27 47.29 96.84 47.29 96.84 51.65 104.76 56.04 96.78 56.04 96.78"/><polygon class="cls-6" points="51.67 104.81 52.09 104.39 51.66 104.79 51.67 104.81"/><polygon class="cls-6" points="51.63 104.79 51.2 104.39 51.62 104.81 51.63 104.79"/><polygon class="cls-6" points="51.63 104.82 51.65 104.84 51.67 104.82 51.65 104.8 51.65 104.8 51.65 104.8 51.63 104.82"/><polygon class="cls-6" points="51.69 75.68 51.68 75.68 51.69 75.68 51.69 75.68"/><polygon class="cls-6" points="51.65 75.68 51.65 75.71 51.66 75.7 51.65 75.68"/><polygon class="cls-7" points="51.69 75.68 51.68 75.68 51.68 75.68 51.66 75.7 51.65 75.71 51.65 75.71 51.65 75.71 51.65 75.71 51.65 75.71 56.22 81.93 61.41 89.01 72.22 69.35 65.03 66.77 65.03 66.77 51.69 75.68"/><polygon class="cls-7" points="47.1 81.9 47.1 81.9 47.33 81.59 51.65 75.71 51.65 75.71 51.65 75.71 51.61 75.68 38.27 66.77 38.27 66.77 31.07 69.35 41.88 89.01 47.1 81.9"/><path class="cls-8" d="M103.22,102l-.42-15.62a11,11,0,0,0-7.14-8.59L72.23,69.35l6.22,12.48L70.67,82l2.63,5L52.09,104.4l-.42.41,0,0H98.31C101.38,104.84,103.73,105.08,103.22,102Z"/><polygon class="cls-8" points="51.67 104.82 51.65 104.84 51.65 104.84 51.69 104.84 51.67 104.82"/><polygon class="cls-9" points="56.04 96.78 51.65 104.76 51.65 104.76 51.66 104.79 52.09 104.39 73.31 86.99 70.67 81.95 78.45 81.83 72.22 69.35 61.41 89.01 56.04 96.78"/><polygon class="cls-9" points="51.63 104.82 51.65 104.8 51.65 104.8 51.63 104.79 51.62 104.81 51.63 104.82"/><path class="cls-8" d="M51.63,104.82h0l-.42-.41L30,87l2.64-5-7.79-.12,6.23-12.48L7.64,77.83A11,11,0,0,0,.49,86.42L.07,102c-.5,3,1.84,2.8,4.92,2.8H51.65Z"/><polygon class="cls-9" points="51.67 104.81 51.66 104.79 51.65 104.76 51.65 104.76 47.29 96.84 41.88 89.01 31.07 69.35 24.84 81.83 32.63 81.95 29.99 86.99 51.2 104.39 51.63 104.79 51.65 104.8 51.65 104.8 51.67 104.82 51.69 104.84 51.67 104.81"/></g></g></svg>